<mxfile host="app.diagrams.net" modified="2023-07-12T14:33:26.337Z" agent="Mozilla/5.0 (Windows NT 10.0; Win64; x64; rv:109.0) Gecko/20100101 Firefox/115.0" version="21.6.1" etag="5tlsJyXj1Gj20TOJBCx8" type="github">
  <diagram name="PÃ¡gina-1" id="4VC4WG_qFZz8I3Dqk1iT">
    <mxGraphModel>
      <root>
        <mxCell id="0" />
        <mxCell id="1" parent="0" />
      </root>
    </mxGraphModel>
  </diagram>
</mxfile>
